<svg width="88" height="90" viewBox="0 0 88 90" fill="none" xmlns="http://www.w3.org/2000/svg">
<path d="M75.1783 13.3819C66.9053 5.0407 55.9046 0.444542 44.1841 0.439453C20.0323 0.439453 0.37753 20.2361 0.367861 44.569C0.365047 52.3471 2.38215 59.9397 6.21612 66.6323L0 89.5007L23.2275 83.3642C29.6271 86.8807 36.8327 88.7337 44.1653 88.7366H44.1839H44.1841C68.3321 88.7366 87.9898 68.9365 88 44.6048C88.004 32.8119 83.4503 21.7237 75.1783 13.3819ZM44.1841 81.283H44.1699C37.634 81.2795 31.2246 79.5115 25.6341 76.1692L24.3037 75.3746L10.52 79.0157L14.2 65.4803L13.3332 64.0926C9.68742 58.252 7.76275 51.5025 7.76549 44.5718C7.7735 24.3471 24.1098 7.89339 44.1979 7.89339C53.9256 7.89746 63.0686 11.7178 69.9449 18.6508C76.8207 25.5836 80.6046 34.7999 80.6017 44.6016C80.5932 64.827 64.2564 81.283 44.1841 81.283Z" fill="#E0E0E0"/>
<path d="M2.01172 86.9618L7.94389 65.1381C4.28412 58.7511 2.35952 51.5048 2.36183 44.0834C2.37143 20.8625 21.1285 1.9707 44.1751 1.9707C55.3607 1.97579 65.8591 6.36177 73.7525 14.3221C81.6476 22.2824 85.9929 32.8634 85.9883 44.1163C85.9787 67.3378 67.2205 86.2313 44.1768 86.2313C44.1751 86.2313 44.1779 86.2313 44.1768 86.2313H44.1582C37.1605 86.2291 30.2846 84.4592 24.1778 81.1058L2.01172 86.9618Z" fill="url(#paint0_linear_1_2782)"/>
<path fill-rule="evenodd" clip-rule="evenodd" d="M33.3562 25.8315C32.5456 24.0156 31.6921 23.9793 30.9208 23.9475C30.29 23.9202 29.5679 23.9219 28.8469 23.9219C28.1253 23.9219 26.9527 24.1951 25.9611 25.2862C24.969 26.3773 22.1729 29.015 22.1729 34.3797C22.1729 39.7449 26.0513 44.9289 26.5919 45.657C27.1331 46.384 34.0789 57.7449 45.079 62.1155C54.2211 65.7478 56.0815 65.0253 58.0658 64.8435C60.0501 64.6618 64.4687 62.2064 65.3706 59.6601C66.2726 57.1143 66.2726 54.9322 66.002 54.4761C65.7314 54.0217 65.0098 53.749 63.9275 53.2038C62.8451 52.6585 57.5246 50.0202 56.5324 49.6567C55.5403 49.2932 54.8187 49.1114 54.0971 50.2031C53.3755 51.2937 51.3027 53.749 50.6713 54.4761C50.0399 55.2048 49.4085 55.2956 48.3261 54.7504C47.2438 54.2034 43.7582 53.0532 39.6232 49.3386C36.406 46.4486 34.2339 42.8794 33.6025 41.7878C32.9711 40.6973 33.5348 40.1066 34.0778 39.563C34.5637 39.0745 35.1601 38.2901 35.7013 37.6534C36.2413 37.0166 36.4217 36.5623 36.7825 35.8352C37.1433 35.107 36.9629 34.4704 36.6923 33.9251C36.4217 33.3799 34.3185 27.9875 33.3562 25.8315Z" fill="white"/>
<path d="M74.8202 13.2412C66.6421 4.99573 55.7677 0.452427 44.1819 0.447266C20.3072 0.447266 0.878084 20.0166 0.868487 44.0702C0.865672 51.7591 2.85961 59.2645 6.64956 65.8803L0.504883 88.4861L23.4658 82.42C29.792 85.896 36.9148 87.7279 44.1632 87.7307H44.1816H44.1819C68.0526 87.7307 87.4845 68.1579 87.4947 44.1054C87.4986 32.4481 82.9972 21.4872 74.8202 13.2412ZM44.1819 80.3628H44.1678C37.7068 80.3594 31.371 78.6117 25.8447 75.3078L24.5295 74.5222L10.9041 78.1216L14.5418 64.7415L13.685 63.3699C10.081 57.5963 8.17845 50.9241 8.18126 44.0731C8.18913 24.0806 24.3379 7.81577 44.1954 7.81577C53.8116 7.81977 62.8494 11.5963 69.6469 18.4496C76.4438 25.303 80.1842 34.4134 80.1814 44.1027C80.1729 64.0957 64.0236 80.3628 44.1819 80.3628Z" fill="white"/>
<defs>
<linearGradient id="paint0_linear_1_2782" x1="44.0001" y1="86.9618" x2="44.0001" y2="1.97084" gradientUnits="userSpaceOnUse">
<stop stop-color="#20B038"/>
<stop offset="1" stop-color="#60D66A"/>
</linearGradient>
</defs>
</svg>
