<svg width="80" height="81" viewBox="0 0 80 81" fill="none" xmlns="http://www.w3.org/2000/svg">
<path d="M41.718 52.7222L4.11804 21.9577C2.17418 20.3049 0.812922 17.7367 0.3274 14.8061C-0.158122 11.8755 0.270931 8.81702 1.52217 6.28918C2.7734 3.76134 4.74672 1.96639 7.01721 1.29085C9.28769 0.615319 11.6737 1.11324 13.6614 2.67739L41.2466 25.2461L66.0143 2.95472C67.9467 1.27114 70.3166 0.632402 72.6122 1.17647C74.9078 1.72054 76.9448 3.40374 78.2832 5.86253C79.6217 8.32133 80.1542 11.3584 79.7657 14.3177C79.3772 17.277 78.0989 19.9211 76.2069 21.6789L41.718 52.7222Z" fill="#EA4435"/>
<path d="M74.0741 80.8865H62.2222L62.2222 12.3152C62.2222 9.28421 63.1587 6.37732 64.8257 4.23405C66.4927 2.09078 68.7536 0.886711 71.1111 0.886711C73.4686 0.886711 75.7295 2.09078 77.3965 4.23405C79.0635 6.37732 80 9.28421 80 12.3152V73.2674C80 75.2881 79.3757 77.2261 78.2643 78.6549C77.153 80.0838 75.6457 80.8865 74.0741 80.8865Z" fill="#00AC47"/>
<path d="M79.8704 10.656C79.8443 10.4274 79.8464 10.1939 79.8094 9.96571C79.7525 9.616 79.6467 9.29295 79.5655 8.95543C79.4868 8.56911 79.3921 8.1885 79.2817 7.81524C79.2224 7.63429 79.1311 7.47543 79.0639 7.29943C78.8795 6.79162 78.6662 6.30203 78.4257 5.83468C78.3071 5.61334 78.159 5.42477 78.028 5.21525C77.8033 4.83444 77.5604 4.47197 77.3006 4.12992C77.1036 3.88344 76.879 3.67735 76.6648 3.45525C76.4371 3.20427 76.1998 2.96816 75.9537 2.74783C75.7187 2.55049 75.4615 2.39849 75.2129 2.23011C74.951 2.05449 74.6944 1.86326 74.4218 1.72307C74.1584 1.58669 73.8775 1.49983 73.6023 1.39583C73.327 1.29183 73.0532 1.16726 72.7706 1.09983C72.4204 1.02751 72.0672 0.981713 71.7128 0.96269C71.4879 0.942499 71.2651 0.891832 71.0393 0.894118C70.6201 0.909824 70.2024 0.963929 69.7892 1.05602C69.6224 1.08802 69.4544 1.08536 69.2888 1.12955C68.7297 1.34918 68.1721 1.57522 67.6162 1.80764C67.4636 1.89145 67.33 2.01602 67.1821 2.1105C65.6775 3.01319 64.4084 4.45686 63.5282 6.26703C62.6481 8.07719 62.1945 10.1764 62.2224 12.3108V34.2613L76.2076 21.6735C77.5809 20.4885 78.6577 18.8171 79.3076 16.8616C79.9575 14.9061 80.1536 12.7511 79.8704 10.656Z" fill="#FFBA00"/>
<path d="M8.88889 0.887207C11.2464 0.887207 13.5073 2.09128 15.1743 4.23455C16.8413 6.37782 17.7778 9.28471 17.7778 12.3157V80.887H5.92593C4.35427 80.887 2.84699 80.0843 1.73566 78.6554C0.624337 77.2266 0 75.2886 0 73.2679V12.3157C0 9.28471 0.936506 6.37782 2.6035 4.23455C4.27049 2.09128 6.53141 0.887207 8.88889 0.887207Z" fill="#4285F4"/>
<path d="M0.129833 10.6587C0.155907 10.4301 0.153833 10.1966 0.19087 9.96838C0.247759 9.61866 0.353536 9.29562 0.434722 8.95809C0.513424 8.57191 0.608177 8.19143 0.718573 7.81829C0.777833 7.63734 0.869092 7.47848 0.936648 7.30248C1.12089 6.79446 1.33421 6.30474 1.57487 5.83734C1.69339 5.61601 1.84154 5.42744 1.9725 5.21792C2.19714 4.83712 2.43998 4.47464 2.69961 4.13258C2.89665 3.88611 3.12124 3.68001 3.33576 3.45792C3.56336 3.20684 3.8007 2.97073 4.04687 2.75049C4.28183 2.55316 4.53902 2.40116 4.78761 2.23278C5.04451 2.04595 5.30855 1.87583 5.57872 1.72307C5.84243 1.58669 6.12331 1.49983 6.39828 1.39583C6.67324 1.29183 6.94731 1.16726 7.22998 1.09983C7.58018 1.02752 7.93338 0.981732 8.28776 0.96269C8.51295 0.942499 8.73546 0.891832 8.96124 0.894118C9.3804 0.909805 9.79815 0.96391 10.2113 1.05602C10.3781 1.08802 10.5461 1.08536 10.7121 1.12955C10.9989 1.2235 11.2817 1.33642 11.5595 1.46783C11.8388 1.56328 12.1142 1.67669 12.3846 1.80764C12.5369 1.89145 12.6706 2.01602 12.8187 2.1105C13.2028 2.3425 13.5733 2.60986 13.9275 2.91049C15.1145 3.95845 16.0854 5.36214 16.7561 7.00038C17.4269 8.63861 17.7775 10.4621 17.7775 12.3135V34.2639L3.79235 21.6769C2.41925 20.4915 1.34262 18.8201 0.69265 16.8648C0.0426789 14.9094 -0.152805 12.7538 0.129833 10.6587Z" fill="#C52528"/>
</svg>
